<svg xmlns="http://www.w3.org/2000/svg" viewBox="0 0 1436 686" preserveAspectRatio="xMidYMid" width="1436" height="686" xmlns:xlink="http://www.w3.org/1999/xlink" style="shape-rendering:auto;display:block;background-position-x:0%;background-position-y:0%;background-size:auto;background-origin:padding-box;background-clip:border-box;background:scroll rgb(255, 255, 255) none  repeat;width:1436px;height:686px;;animation:none"><g><g opacity="0.4" transform="matrix(100,0,0,100,1647.398681640625,-332.2477111816406)" style="transform:matrix(100, 0, 0, 100, 1647.4, -332.248);opacity:0.4;;animation:none"><path stroke-width="0" fill="#0055ff" d="M11.258239999999999 0 C11.258239999999999 2.297599999999999 11.296677835449144 3.8691000322648734 10.147877835449144 5.858879999999999 S7.618899967735126 8.601121841902117 5.62912 9.749921841902117 S2.2976 11.71776 7.175058638588445e-16 11.71776 S-3.639340032264871 10.898721841902118 -5.629119999999997 9.749921841902118 S-8.999077835449143 7.848659967735129 -10.147877835449142 5.858880000000004 S-11.258239999999999 2.2976000000000005 -11.258239999999999 1.3787367580032696e-15 S-11.296677835449145 -3.8691000322648703 -10.147877835449146 -5.8588799999999965 S-7.61889996773513 -8.601121841902113 -5.629120000000005 -9.749921841902115 S-2.2976000000000014 -11.71776 -2.152517591576533e-15 -11.71776 S3.639340032264866 -10.89872184190212 5.629119999999992 -9.749921841902122 S8.999077835449139 -7.848659967735131 10.14787783544914 -5.858880000000005 S11.258239999999999 -2.297600000000002 11.258239999999999 -2.757473516006539e-15" transform="matrix(1,0,0,1,0,0)" style="fill:rgb(0, 85, 255);transform:matrix(1, 0, 0, 1, 0, 0);;animation:none"></path></g>
<g opacity="0.4" transform="matrix(100,0,0,100,1833.2784423828125,-467.2972412109375)" style="transform:matrix(100, 0, 0, 100, 1833.28, -467.297);opacity:0.4;;animation:none"><path stroke-width="0" fill="#0046ff" d="M13.509887999999998 0 C13.509887999999998 2.757119999999999 13.556013402538973 4.642920038717848 12.177453402538973 7.030655999999999 S9.142679961282152 10.32134621028254 6.754944000000001 11.69990621028254 S2.75712 14.061312 8.610070366306134e-16 14.061312 S-4.367208038717846 13.07846621028254 -6.7549439999999965 11.699906210282542 S-10.798893402538969 9.418391961282154 -12.17745340253897 7.030656000000004 S-13.509887999999998 2.757120000000001 -13.509887999999998 1.6544841096039235e-15 S-13.556013402538973 -4.642920038717845 -12.177453402538974 -7.030655999999996 S-9.142679961282155 -10.321346210282536 -6.754944000000005 -11.699906210282537 S-2.757120000000002 -14.061312 -2.5830211098918398e-15 -14.061312 S4.3672080387178385 -13.078466210282544 6.75494399999999 -11.699906210282546 S10.798893402538967 -9.418391961282156 12.177453402538967 -7.030656000000006 S13.509887999999998 -2.7571200000000022 13.509887999999998 -3.308968219207847e-15" transform="matrix(1,0,0,1,0,0)" style="fill:rgb(0, 70, 255);transform:matrix(1, 0, 0, 1, 0, 0);;animation:none"></path></g>
<g opacity="0.4" transform="matrix(100,0,0,100,2279.389892578125,-791.4161376953125)" style="transform:matrix(100, 0, 0, 100, 2279.39, -791.416);opacity:0.4;;animation:none"><path stroke-width="0" fill="#0033ff" d="M18.913843199999995 0 C18.913843199999995 3.8599679999999985 18.978418763554558 6.500088054204985 17.04843476355456 9.842918399999997 S12.799751945795009 14.449884694395555 9.4569216 16.379868694395554 S3.859968 19.685836799999997 1.2054098512828584e-15 19.685836799999997 S-6.114091254204983 18.309852694395552 -9.456921599999994 16.379868694395554 S-15.118450763554556 13.185748745795015 -17.048434763554557 9.842918400000006 S-18.913843199999995 3.8599680000000007 -18.913843199999995 2.3162777534454926e-15 S-18.97841876355456 -6.500088054204982 -17.048434763554564 -9.842918399999993 S-12.799751945795016 -14.44988469439555 -9.456921600000006 -16.37986869439555 S-3.859968000000002 -19.685836799999997 -3.6162295538485755e-15 -19.685836799999997 S6.114091254204973 -18.30985269439556 9.456921599999985 -16.37986869439556 S15.118450763554552 -13.185748745795017 17.048434763554553 -9.842918400000007 S18.913843199999995 -3.859968000000003 18.913843199999995 -4.632555506890985e-15" transform="matrix(1,0,0,1,0,0)" style="fill:rgb(0, 51, 255);transform:matrix(1, 0, 0, 1, 0, 0);;animation:none"></path></g>
<g></g></g><!-- [ldio] generated by https://loading.io --></svg>